# xmcd
#
# Track frame offsets:
# 150
# 13211
# 22943
# 35485
# 47706
# 64462
# 74686
# 86624
# 102763
# 115603
#
# Disc length: 1728 seconds
#
#
# Revision: 2
# Processed by: cddbd v1.5.1PL2 Copyright (c) Steve Scherf et al.
# Submitted via: FreeRIP 2.945 
#
DISCID=8306be0a
DTITLE=Various Artist - Roots of Bluegrass
DYEAR=2003
DGENRE=Misc
TTITLE0=Gid Tanner and Riley Pucket - On Tanner's Farm
TTITLE1=The Monroe Brothers - Darling Gorey
TTITLE2=The Blue Sky Boys - Are You From Dixie?
TTITLE3=Arthur Smith Trio - Freight Train Moan
TTITLE4=The Monroe Brothers - New River Train
TTITLE5=Charlie Monroe's Boys - The Great Speckled Bird
TTITLE6=The Dixon Brothers - Intoxicated Rat
TTITLE7=The Monroe Brothers - On The Banks Of The Ohio
TTITLE8=Uncle Dave Mason - Cumberland Mountain Deer Race
TTITLE9=Bill Monroe and his Ble Grass Boys - Dog House Blues
EXTD=With Artists
EXTT0=
EXTT1=
EXTT2=
EXTT3=
EXTT4=
EXTT5=
EXTT6=
EXTT7=
EXTT8=
EXTT9=
PLAYORDER=
